# xmcd CD database file
#
# Track frame offsets:
#	150
#	16563
#	31824
#	54830
#	68313
#	82975
#	95544
#	107023
#	121030
#	143176
#	168986
#	183508
#	193834
#	216271
#	230546
#	241649
#	260808
#	275221
#
# Disc length: 3883 seconds
#
# Revision: 0
# Processed by: cddbd v1.5.2PL0 Copyright (c) Steve Scherf et al.
# Submitted via: CDex 1.70beta2
#
DISCID=eb0f2912
DTITLE=Various Artist - Jazz Manouche (Vol. 4 - cd 2)
DYEAR=2008
DGENRE=Jazz
TTITLE0=Hervé Pouliquen Quartet - 11ème Swing
TTITLE1=Les Doigts De L’Homme - Zinedine Tzigane
TTITLE2=Gadjologie - Swing 85914
TTITLE3=David Grisman Quintet - Minor Swing
TTITLE4=David Reinhardt Trio - Micro
TTITLE5=Stochelo Rosenberg - All The Things You Are
TTITLE6=Yorgui Loeffler - Fiso Place
TTITLE7=Biel Ballester Trio - Atomic Gypsy Swinging (Live)
TTITLE8=Romane - Pêche A La Mouche
TTITLE9=Bireli Lagrène - Deauville En Ville (Live)
TTITLE10=Monica Modeste - Mama
TTITLE11=Charles Trenet and Django Reinhardt - La Cigale Et La Fourmi
TTITLE12=Zachary Richard - La Ballade De DL-8-153
TTITLE13=Samson Schmitt and Dorado Schmitt - Paris Sous La Pluie
TTITLE14=Angelo Debarre, Ludovic Beier and Sanseverino - Toi, Le Manouche
TTITLE15=O’djila - Johny
TTITLE16=Syntax - Dans Ma Guitare
TTITLE17=Sanseverino - La Cigarette
EXTD=YEAR: 2008
EXTT0=
EXTT1=
EXTT2=
EXTT3=
EXTT4=
EXTT5=
EXTT6=
EXTT7=
EXTT8=
EXTT9=
EXTT10=
EXTT11=
EXTT12=
EXTT13=
EXTT14=
EXTT15=
EXTT16=
EXTT17=
PLAYORDER=
